<?xml version="1.0" standalone="no"?>
<!DOCTYPE svg PUBLIC "-//W3C//DTD SVG 20010904//EN"
 "http://www.w3.org/TR/2001/REC-SVG-20010904/DTD/svg10.dtd">
<svg version="1.0" xmlns="http://www.w3.org/2000/svg"
 width="150.000000pt" height="91.000000pt" viewBox="0 0 150.000000 91.000000"
 preserveAspectRatio="xMidYMid meet">

<g transform="translate(0.000000,91.000000) scale(0.100000,-0.100000)"
fill="#000000" stroke="none">
<path d="M315 751 c11 -10 73 -64 137 -119 l117 -100 -117 -98 c-64 -55 -125
-107 -137 -116 -19 -16 3 -17 417 -18 384 0 438 2 452 16 14 13 16 47 16 218
0 184 -2 204 -18 219 -17 15 -63 17 -453 17 -426 0 -433 0 -414 -19z m857 -8
c16 -14 18 -35 18 -209 0 -162 -3 -195 -16 -208 -14 -14 -66 -16 -432 -16
-330 1 -414 3 -401 13 70 53 239 204 238 212 0 5 -37 41 -82 78 -45 37 -102
86 -127 107 l-45 39 414 1 c372 0 416 -2 433 -17z"/>
<path d="M380 736 c0 -2 52 -48 115 -102 134 -113 135 -89 -16 -216 l-100 -83
372 -8 c205 -5 383 -6 396 -2 l23 5 -2 203 -3 202 -392 3 c-216 1 -393 0 -393
-2z m750 -46 c0 -17 -7 -20 -39 -20 -22 0 -43 5 -46 10 -11 19 6 30 46 30 32
0 39 -3 39 -20z m-202 -30 c96 -58 95 -198 -1 -255 -62 -37 -159 -14 -198 48
-26 42 -23 135 7 168 53 60 131 76 192 39z"/>
<path d="M803 646 c-48 -22 -75 -71 -70 -126 4 -35 12 -51 42 -78 34 -32 41
-34 88 -29 86 8 134 81 106 160 -25 70 -100 103 -166 73z m91 -6 c18 -7 26
-17 26 -34 l0 -25 -45 26 c-25 13 -45 29 -45 34 0 12 32 12 64 -1z m-54 -24
c0 -5 -87 -56 -95 -56 -11 0 25 59 42 69 15 8 53 -1 53 -13z m126 -63 c5 -25
2 -33 -15 -42 -20 -11 -21 -10 -21 46 0 51 2 56 15 43 8 -9 17 -29 21 -47z
m-186 -49 c0 -49 -2 -55 -15 -44 -21 18 -31 80 -14 91 25 16 29 10 29 -47z
m180 -10 c0 -33 -60 -74 -109 -74 -45 0 -61 10 -61 37 l0 25 47 -26 c25 -15
48 -24 51 -21 3 3 0 5 -6 5 -23 0 -12 16 26 38 38 22 52 26 52 16z"/>
<path d="M330 201 c0 -28 5 -53 10 -56 6 -4 10 15 10 49 0 31 -4 56 -10 56 -5
0 -10 -22 -10 -49z"/>
<path d="M380 195 c0 -52 2 -55 24 -55 35 0 57 26 50 58 -10 49 -13 52 -44 52
-30 0 -30 0 -30 -55z m50 30 c0 -8 -7 -15 -15 -15 -8 0 -15 7 -15 15 0 8 7 15
15 15 8 0 15 -7 15 -15z m8 -47 c-7 -19 -38 -22 -38 -4 0 10 9 16 21 16 12 0
19 -5 17 -12z"/>
<path d="M481 193 c1 -32 4 -48 6 -35 5 27 29 29 38 2 3 -11 11 -20 16 -20 6
0 7 6 1 17 -6 11 -6 25 0 39 16 34 3 54 -32 54 l-30 0 1 -57z m49 27 c0 -13
-7 -20 -20 -20 -13 0 -20 7 -20 20 0 13 7 20 20 20 13 0 20 -7 20 -20z"/>
<path d="M575 199 c-9 -28 -14 -53 -11 -56 3 -3 8 2 12 11 8 20 54 22 54 1 0
-8 5 -15 10 -15 13 0 13 -3 -5 58 -9 30 -22 52 -30 52 -7 0 -21 -22 -30 -51z
m33 -8 c-15 -5 -19 4 -11 24 6 18 7 18 13 -1 4 -10 3 -21 -2 -23z"/>
<path d="M671 193 c1 -32 4 -48 6 -35 5 27 19 28 33 2 6 -11 15 -20 21 -20 6
0 6 7 -1 20 -7 14 -7 25 1 38 18 29 4 52 -31 52 l-30 0 1 -57z m47 24 c2 -12
-3 -17 -17 -17 -15 0 -21 6 -21 21 0 25 33 22 38 -4z"/>
<path d="M809 223 c-6 -16 -13 -41 -15 -58 -5 -27 -4 -28 9 -12 8 9 21 17 30
17 9 0 21 -8 26 -17 14 -24 14 -3 0 53 -13 50 -34 58 -50 17z m31 -18 c0 -8
-4 -15 -10 -15 -5 0 -10 7 -10 15 0 8 5 15 10 15 6 0 10 -7 10 -15z"/>
<path d="M890 195 c0 -54 0 -55 30 -55 17 0 30 5 30 10 0 6 -9 10 -20 10 -17
0 -20 7 -20 45 0 25 -4 45 -10 45 -5 0 -10 -25 -10 -55z"/>
<path d="M975 198 c-18 -61 -18 -58 -5 -58 6 0 10 7 10 15 0 21 46 19 54 -1 4
-9 9 -14 12 -11 11 10 -27 107 -41 107 -8 0 -21 -22 -30 -52z m45 0 c0 -5 -6
-8 -14 -8 -9 0 -12 7 -9 21 4 16 8 17 14 7 5 -7 9 -16 9 -20z"/>
<path d="M1071 193 c1 -50 3 -53 8 -23 l7 35 14 -27 c7 -16 16 -28 20 -28 4 0
13 12 20 28 l14 27 7 -35 c5 -30 7 -27 8 23 1 63 -13 76 -30 27 -6 -16 -14
-30 -18 -30 -4 0 -12 14 -18 30 -18 49 -33 36 -32 -27z"/>
</g>
</svg>
